<svg xmlns="http://www.w3.org/2000/svg" version="1.1" viewBox="0 0 502 441.5">
   <path id="head-outline" d="M465.98,150.86c-0.28-1.15,0.43-2.93,1.31-3.86c3.77-4.01,7.98-7.66,11.66-11.74c14.91-16.51,22.71-35.45,20.74-57.61
      c-0.2-2.31-0.83-4.6-0.86-6.9c-0.18-14.56-7.29-26.94-16.19-37.38c-10.19-11.96-22.95-21.68-39.02-26.88
      c-19.78-6.4-39.08-5.73-58.48,0.59c-14.72,4.8-26.46,13.89-36.53,24.93c-4.04,4.43-7.89,5.28-13.68,3.77
      c-21.62-5.61-43.7-9.01-66.09-9.41c-35.13-0.62-70.04,1.61-104.13,10.64c-3.44,0.91-5.44-0.05-7.91-2.33
      c-6.25-5.77-12.4-11.85-19.52-16.48C117.43,5.29,95.22-0.36,71.43,3.15c-9.46,1.39-19.09,4.71-27.47,9.17
      c-12.64,6.73-21.56,17.62-29.92,29C1.95,57.78,0.22,76.4,2.47,95.02c2.43,20.14,13.7,36.76,29.8,49.9
      c3.89,3.17,4.72,5.73,3.23,10.5c-12.68,40.67-20.72,81.97-16.92,124.74c1.65,18.6,5.29,36.5,14.43,53.38
      c15.03,27.73,35.83,49.35,64.17,65.3c24.4,13.74,50.28,23.41,76.98,31.15c26.07,7.56,51.67,9.98,80.34,9.79
      c22.47-0.74,45.63-2.6,67.13-7.58c13.14-4.03,26.11-8.61,39.09-13.11c27.21-10.69,49.4-23.68,72.82-40.61
      c18.29-16.09,31.83-35.11,40.29-57.35c3.68-9.68,7.14-19.75,8.39-29.91c3.56-28.84,3.21-57.8-2.8-86.37
      C475.61,186.74,470.4,168.88,465.98,150.86z M460.83,303.51c-11.4,38.13-36.37,65.74-71.99,85
      c-32.66,17.67-67.3,29.24-104.71,33.08c-59.86,6.15-116.31-3.7-169.02-32.17c-34.19-18.46-59.66-44.01-71.97-80.59
      c-5.78-17.17-7.2-34.76-6.77-52.63c0.94-39.1,8.85-76.86,22.8-112.19c-9-8.56-18.41-15.62-25.34-24.47
      c-16.07-20.52-18.86-43.21-5.82-66.08c12.65-22.19,32.8-34.11,59.39-33.78c20.46,0.26,37.23,9.6,51.73,22.9
      c4.29,3.94,7.98,8.48,12.21,12.49c1.05,1,3.33,1.74,4.69,1.37c39.53-10.55,79.74-14.62,120.65-11.89
      c23.28,1.55,46.24,5.06,68.59,11.7c2.86,0.85,4.37,0.51,6.36-1.86c13.08-15.56,28.47-28.22,49.25-33.05
      c27.2-6.33,55.57,4.93,70.71,27.62c15.17,22.72,13.89,50.92-4.33,72.55c-6.18,7.34-14.31,13.2-21.81,19.45
      c-2.02,1.69-2.63,2.76-1.66,5.28c9.9,25.71,16.88,52.16,19.91,79.44C466.6,251.72,468.5,277.86,460.83,303.51z"/>
   <path id="head-fill" fill="#FFFFFF" d="M443.8,146.24c-0.97-2.52-0.36-3.59,1.66-5.28c7.49-6.26,15.62-12.11,21.81-19.45
      c18.22-21.63,19.5-49.84,4.33-72.55c-15.15-22.69-43.51-33.94-70.71-27.62c-20.78,4.83-36.17,17.49-49.25,33.05
      c-1.99,2.37-3.5,2.71-6.36,1.86c-22.35-6.64-45.31-10.15-68.59-11.7c-40.91-2.73-81.12,1.34-120.65,11.89
      c-1.36,0.36-3.64-0.37-4.69-1.37c-4.23-4.01-7.92-8.55-12.21-12.49c-14.5-13.3-31.27-22.64-51.73-22.9
      c-26.6-0.34-46.74,11.59-59.39,33.78c-13.04,22.87-10.24,45.57,5.82,66.08c6.93,8.85,16.34,15.91,25.34,24.47
      c-13.95,35.33-21.86,73.09-22.8,112.19c-0.43,17.88,1,35.46,6.77,52.63c12.31,36.58,37.78,62.13,71.97,80.59
      c52.71,28.47,109.16,38.31,169.02,32.17c37.41-3.84,72.05-15.42,104.71-33.08c35.62-19.27,60.6-46.87,71.99-85
      c7.67-25.65,5.77-51.79,2.88-77.83C460.68,198.4,453.7,171.96,443.8,146.24z M69.33,121.99C51.98,113.68,41.33,94.88,43.49,77
      c1.91-15.82,15.13-30.08,31.75-34.22c18.5-4.61,40.93,4.27,53.09,21.27C102.44,77.31,84.02,97.72,69.33,121.99z M205.68,274.02
      c-13.2,19.39-28.67,36.9-48.06,50.85c-9.12,6.57-19.29,11-31,11.24c-19.9,0.41-34.23-15.11-31.65-34.17
      c1.39-10.27,5.27-19.7,10.14-28.79c11.19-20.86,25.41-39.37,45.64-53.03c7.44-5.02,15.53-8.87,24.75-9.41
      c19.22-1.14,36.33,13.85,37.83,32.82c0.12,1.54,0.16,3.09,0.24,4.63c-0.02,7.02-1.47,13.68-4.43,19.85c0,0.01-0.01,0.01-0.01,0.02
      c-0.49,1.02-1.02,2.03-1.6,3.03C206.96,272.07,206.34,273.05,205.68,274.02z M292.78,367.37c-8.52,11.56-28.01,12.84-38.75,2.48
      c-0.99-0.95-1.91-1.97-3.11-3.21c-6.33,7.42-14.23,11.08-24.12,10.39c-7.19-0.5-12.68-3.97-17.37-8.89
      c-2.35-2.47-2.31-5.64,0.24-7.33c1.7-1.12,5.08-0.91,7.24-0.12c3.62,1.32,6.65,4.41,10.31,5.26c8.26,1.93,16.13-3.98,17.16-12.07
      c0.08-0.61,0.15-1.23,0.21-1.84c0.98-9.67,0.7-9.12-8.28-13.35c-6.65-3.13-13.01-7.33-18.47-12.14
      c-6.99-6.15-5.74-12.24,2.71-16.58c11.27-5.78,23.64-6.99,36.02-5.92c8.03,0.7,16.19,2.44,23.74,5.16
      c10.02,3.61,11.14,9.55,4.38,17.55c-6.09,7.2-14.05,11.68-23.37,13.7c-2.98,0.64-4.06,1.77-3.86,4.58
      c0.17,2.46-0.09,4.95,0.01,7.42c0.51,11.76,12.25,17.74,22.76,11.56c1.76-1.03,3.29-2.45,4.85-3.77c2.53-2.15,4.93-1.8,7.29,0.19
      C294.95,362.6,294.63,364.87,292.78,367.37z M383.39,335.43c-2.47,0.59-5.07,0.64-6.48,0.8c-11.3-0.15-20.37-3.53-28.56-8.95
      c-22.09-14.61-39.03-33.93-53.21-55.52c-6.49-9.88-8.09-21.02-5.54-32.58c5.28-23.98,29-35.09,51.82-24.07
      c15.87,7.66,28.02,19.55,38.62,32.94c11.54,14.58,21.46,30.07,25.81,48.23C410.36,315.06,401.08,331.2,383.39,335.43z
      M373.52,63.97c12.77-17.3,35.33-25.97,54.07-21.15c27,6.95,45.42,39.95,19.65,68.34c-3.94,4.34-8.96,7.77-14.01,12.07
      C418.18,98.17,399.49,77.6,373.52,63.97z"/>
   <path id="eye-l" d="M209.14,268.02c2.96-6.17,4.41-12.83,4.42-19.84c-0.07-1.55-0.12-3.1-0.24-4.64c-1.5-18.97-18.61-33.96-37.83-32.82
      c-9.21,0.55-17.31,4.39-24.75,9.41c-20.23,13.66-34.45,32.17-45.64,53.03c-4.88,9.09-8.76,18.52-10.14,28.79
      c-2.57,19.06,11.75,34.58,31.65,34.17c11.71-0.24,21.88-4.67,31-11.24c19.39-13.96,34.85-31.47,48.06-50.85
      c0.66-0.97,1.28-1.96,1.86-2.96c0.57-1,1.11-2,1.6-3.03C209.13,268.03,209.14,268.03,209.14,268.02z M167.26,279.91
      c-10.72-0.15-19.62-9.45-19.36-20.26c0.25-10.37,9.06-18.51,19.95-18.42c10.98,0.08,19.54,8.67,19.38,19.43
      C187.07,271.03,177.71,280.05,167.26,279.91z"/>
   <path id="eye-r" d="M380.04,248.04c-10.6-13.38-22.76-25.27-38.62-32.94c-22.82-11.02-46.53,0.09-51.82,24.07
      c-2.55,11.56-0.95,22.7,5.54,32.58c14.18,21.59,31.12,40.91,53.21,55.52c8.2,5.42,17.26,8.8,28.56,8.95
      c1.4-0.17,4.01-0.21,6.48-0.8c17.69-4.23,26.97-20.37,22.47-39.16C401.5,278.11,391.59,262.62,380.04,248.04z M335.08,279.83
      c-10.67,0.21-19.53-8.72-19.67-19.84c-0.13-10.39,8.16-18.62,18.9-18.77c10.88-0.15,19.95,8.39,20.11,18.92
      C354.58,270.78,345.89,279.62,335.08,279.83z"/>
   <path id="ear-l" fill="#E88EB4" d="M75.24,42.78C58.62,46.92,45.4,61.18,43.49,77c-2.16,17.88,8.5,36.68,25.84,44.99
      c14.69-24.27,33.11-44.67,59-57.94C116.17,47.05,93.73,38.17,75.24,42.78z"/>
   <path id="ear-r" fill="#E88EB4" d="M447.24,111.16c25.77-28.38,7.35-61.38-19.65-68.34c-18.74-4.83-41.31,3.85-54.07,21.15
      c25.97,13.62,44.66,34.2,59.71,59.26C438.28,118.93,443.3,115.5,447.24,111.16z"/>
   <path id="mouth" d="M292.38,360.43c-2.36-1.98-4.77-2.34-7.29-0.19c-1.56,1.33-3.09,2.74-4.85,3.77c-10.52,6.18-22.25,0.21-22.76-11.56
      c-0.11-2.47,0.16-4.96-0.01-7.42c-0.2-2.82,0.88-3.94,3.86-4.58c9.33-2.02,17.29-6.5,23.37-13.7c6.76-8,5.65-13.94-4.38-17.55
      c-7.54-2.72-15.71-4.46-23.74-5.16c-12.38-1.08-24.76,0.13-36.02,5.92c-8.45,4.34-9.7,10.42-2.71,16.58
      c5.46,4.81,11.83,9.01,18.47,12.14c8.97,4.23,9.25,3.68,8.28,13.35c-0.06,0.62-0.13,1.23-0.21,1.84c-1.03,8.1-8.9,14-17.16,12.07
      c-3.66-0.85-6.69-3.95-10.31-5.26c-2.17-0.79-5.55-1-7.24,0.12c-2.55,1.69-2.59,4.86-0.24,7.33c4.69,4.92,10.18,8.4,17.37,8.89
      c9.89,0.69,17.79-2.97,24.12-10.39c1.2,1.25,2.12,2.26,3.11,3.21c10.74,10.36,30.23,9.08,38.75-2.48
      C294.63,364.87,294.95,362.6,292.38,360.43z"/>
</svg>