<svg xmlns="http://www.w3.org/2000/svg" shape-rendering="geometricPrecision" viewBox="0 0 502 441.5"><path fill="#3f3f46" fill-opacity=".75" d="M465.98 150.86c-.28-1.15.43-2.93 1.31-3.86 3.77-4.01 7.98-7.66 11.66-11.74 14.91-16.51 22.71-35.45 20.74-57.61-.2-2.31-.83-4.6-.86-6.9-.18-14.56-7.29-26.94-16.19-37.38-10.19-11.96-22.95-21.68-39.02-26.88-19.78-6.4-39.08-5.73-58.48.59-14.72 4.8-26.46 13.89-36.53 24.93-4.04 4.43-7.89 5.28-13.68 3.77-21.62-5.61-43.7-9.01-66.09-9.41-35.13-.62-70.04 1.61-104.13 10.64-3.44.91-5.44-.05-7.91-2.33-6.25-5.77-12.4-11.85-19.52-16.48C117.43 5.29 95.22-.36 71.43 3.15c-9.46 1.39-19.09 4.71-27.47 9.17-12.64 6.73-21.56 17.62-29.92 29C1.95 57.78.22 76.4 2.47 95.02c2.43 20.14 13.7 36.76 29.8 49.9 3.89 3.17 4.72 5.73 3.23 10.5-12.68 40.67-20.72 81.97-16.92 124.74 1.65 18.6 5.29 36.5 14.43 53.38 15.03 27.73 35.83 49.35 64.17 65.3 24.4 13.74 50.28 23.41 76.98 31.15 26.07 7.56 51.67 9.98 80.34 9.79 22.47-.74 45.63-2.6 67.13-7.58 13.14-4.03 26.11-8.61 39.09-13.11 27.21-10.69 49.4-23.68 72.82-40.61 18.29-16.09 31.83-35.11 40.29-57.35 3.68-9.68 7.14-19.75 8.39-29.91 3.56-28.84 3.21-57.8-2.8-86.37-3.81-18.11-9.02-35.97-13.44-53.99m-5.15 152.65c-11.4 38.13-36.37 65.74-71.99 85-32.66 17.67-67.3 29.24-104.71 33.08-59.86 6.15-116.31-3.7-169.02-32.17-34.19-18.46-59.66-44.01-71.97-80.59-5.78-17.17-7.2-34.76-6.77-52.63.94-39.1 8.85-76.86 22.8-112.19-9-8.56-18.41-15.62-25.34-24.47-16.07-20.52-18.86-43.21-5.82-66.08 12.65-22.19 32.8-34.11 59.39-33.78 20.46.26 37.23 9.6 51.73 22.9 4.29 3.94 7.98 8.48 12.21 12.49 1.05 1 3.33 1.74 4.69 1.37 39.53-10.55 79.74-14.62 120.65-11.89 23.28 1.55 46.24 5.06 68.59 11.7 2.86.85 4.37.51 6.36-1.86 13.08-15.56 28.47-28.22 49.25-33.05 27.2-6.33 55.57 4.93 70.71 27.62 15.17 22.72 13.89 50.92-4.33 72.55-6.18 7.34-14.31 13.2-21.81 19.45-2.02 1.69-2.63 2.76-1.66 5.28 9.9 25.71 16.88 52.16 19.91 79.44 2.9 26.04 4.8 52.18-2.87 77.83"/><path fill="#d4d4d8" fill-opacity=".95" d="M443.8 146.24c-.97-2.52-.36-3.59 1.66-5.28 7.49-6.26 15.62-12.11 21.81-19.45 18.22-21.63 19.5-49.84 4.33-72.55-15.15-22.69-43.51-33.94-70.71-27.62-20.78 4.83-36.17 17.49-49.25 33.05-1.99 2.37-3.5 2.71-6.36 1.86-22.35-6.64-45.31-10.15-68.59-11.7-40.91-2.73-81.12 1.34-120.65 11.89-1.36.36-3.64-.37-4.69-1.37-4.23-4.01-7.92-8.55-12.21-12.49-14.5-13.3-31.27-22.64-51.73-22.9-26.6-.34-46.74 11.59-59.39 33.78-13.04 22.87-10.24 45.57 5.82 66.08 6.93 8.85 16.34 15.91 25.34 24.47-13.95 35.33-21.86 73.09-22.8 112.19-.43 17.88 1 35.46 6.77 52.63 12.31 36.58 37.78 62.13 71.97 80.59 52.71 28.47 109.16 38.31 169.02 32.17 37.41-3.84 72.05-15.42 104.71-33.08 35.62-19.27 60.6-46.87 71.99-85 7.67-25.65 5.77-51.79 2.88-77.83-3.04-27.28-10.02-53.72-19.92-79.44M69.33 121.99c-17.35-8.31-28-27.11-25.84-44.99 1.91-15.82 15.13-30.08 31.75-34.22 18.5-4.61 40.93 4.27 53.09 21.27-25.89 13.26-44.31 33.67-59 57.94m136.35 152.03c-13.2 19.39-28.67 36.9-48.06 50.85-9.12 6.57-19.29 11-31 11.24-19.9.41-34.23-15.11-31.65-34.17 1.39-10.27 5.27-19.7 10.14-28.79 11.19-20.86 25.41-39.37 45.64-53.03 7.44-5.02 15.53-8.87 24.75-9.41 19.22-1.14 36.33 13.85 37.83 32.82.12 1.54.16 3.09.24 4.63-.02 7.02-1.47 13.68-4.43 19.85 0 .01-.01.01-.01.02-.49 1.02-1.02 2.03-1.6 3.03-.57 1.01-1.19 1.99-1.85 2.96m87.1 93.35c-8.52 11.56-28.01 12.84-38.75 2.48-.99-.95-1.91-1.97-3.11-3.21-6.33 7.42-14.23 11.08-24.12 10.39-7.19-.5-12.68-3.97-17.37-8.89-2.35-2.47-2.31-5.64.24-7.33 1.7-1.12 5.08-.91 7.24-.12 3.62 1.32 6.65 4.41 10.31 5.26 8.26 1.93 16.13-3.98 17.16-12.07.08-.61.15-1.23.21-1.84.98-9.67.7-9.12-8.28-13.35-6.65-3.13-13.01-7.33-18.47-12.14-6.99-6.15-5.74-12.24 2.71-16.58 11.27-5.78 23.64-6.99 36.02-5.92 8.03.7 16.19 2.44 23.74 5.16 10.02 3.61 11.14 9.55 4.38 17.55-6.09 7.2-14.05 11.68-23.37 13.7-2.98.64-4.06 1.77-3.86 4.58.17 2.46-.09 4.95.01 7.42.51 11.76 12.25 17.74 22.76 11.56 1.76-1.03 3.29-2.45 4.85-3.77 2.53-2.15 4.93-1.8 7.29.19 2.58 2.16 2.26 4.43.41 6.93m90.61-31.94c-2.47.59-5.07.64-6.48.8-11.3-.15-20.37-3.53-28.56-8.95-22.09-14.61-39.03-33.93-53.21-55.52-6.49-9.88-8.09-21.02-5.54-32.58 5.28-23.98 29-35.09 51.82-24.07 15.87 7.66 28.02 19.55 38.62 32.94 11.54 14.58 21.46 30.07 25.81 48.23 4.51 18.78-4.77 34.92-22.46 39.15m-9.87-271.46c12.77-17.3 35.33-25.97 54.07-21.15 27 6.95 45.42 39.95 19.65 68.34-3.94 4.34-8.96 7.77-14.01 12.07-15.05-25.06-33.74-45.63-59.71-59.26"/><path d="M209.14 268.02c2.96-6.17 4.41-12.83 4.42-19.84-.07-1.55-.12-3.1-.24-4.64-1.5-18.97-18.61-33.96-37.83-32.82-9.21.55-17.31 4.39-24.75 9.41-20.23 13.66-34.45 32.17-45.64 53.03-4.88 9.09-8.76 18.52-10.14 28.79-2.57 19.06 11.75 34.58 31.65 34.17 11.71-.24 21.88-4.67 31-11.24 19.39-13.96 34.85-31.47 48.06-50.85a46.194 46.194 0 0 0 3.46-5.99c0-.01.01-.01.01-.02m-41.88 11.89c-10.72-.15-19.62-9.45-19.36-20.26.25-10.37 9.06-18.51 19.95-18.42 10.98.08 19.54 8.67 19.38 19.43-.16 10.37-9.52 19.39-19.97 19.25M380.04 248.04c-10.6-13.38-22.76-25.27-38.62-32.94-22.82-11.02-46.53.09-51.82 24.07-2.55 11.56-.95 22.7 5.54 32.58 14.18 21.59 31.12 40.91 53.21 55.52 8.2 5.42 17.26 8.8 28.56 8.95 1.4-.17 4.01-.21 6.48-.8 17.69-4.23 26.97-20.37 22.47-39.16-4.36-18.15-14.27-33.64-25.82-48.22m-44.96 31.79c-10.67.21-19.53-8.72-19.67-19.84-.13-10.39 8.16-18.62 18.9-18.77 10.88-.15 19.95 8.39 20.11 18.92.16 10.64-8.53 19.48-19.34 19.69"/><path fill="#f472b6" d="M75.24 42.78C58.62 46.92 45.4 61.18 43.49 77c-2.16 17.88 8.5 36.68 25.84 44.99 14.69-24.27 33.11-44.67 59-57.94-12.16-17-34.6-25.88-53.09-21.27M447.24 111.16c25.77-28.38 7.35-61.38-19.65-68.34-18.74-4.83-41.31 3.85-54.07 21.15 25.97 13.62 44.66 34.2 59.71 59.26 5.05-4.3 10.07-7.73 14.01-12.07"/><path d="M292.38 360.43c-2.36-1.98-4.77-2.34-7.29-.19-1.56 1.33-3.09 2.74-4.85 3.77-10.52 6.18-22.25.21-22.76-11.56-.11-2.47.16-4.96-.01-7.42-.2-2.82.88-3.94 3.86-4.58 9.33-2.02 17.29-6.5 23.37-13.7 6.76-8 5.65-13.94-4.38-17.55-7.54-2.72-15.71-4.46-23.74-5.16-12.38-1.08-24.76.13-36.02 5.92-8.45 4.34-9.7 10.42-2.71 16.58a79.7 79.7 0 0 0 18.47 12.14c8.97 4.23 9.25 3.68 8.28 13.35-.06.62-.13 1.23-.21 1.84-1.03 8.1-8.9 14-17.16 12.07-3.66-.85-6.69-3.95-10.31-5.26-2.17-.79-5.55-1-7.24.12-2.55 1.69-2.59 4.86-.24 7.33 4.69 4.92 10.18 8.4 17.37 8.89 9.89.69 17.79-2.97 24.12-10.39 1.2 1.25 2.12 2.26 3.11 3.21 10.74 10.36 30.23 9.08 38.75-2.48 1.84-2.49 2.16-4.76-.41-6.93"/><path fill="#9ca3af" d="M167.85 241.23c-10.89-.08-19.7 8.05-19.95 18.42-.26 10.81 8.63 20.11 19.36 20.26 10.44.14 19.8-8.88 19.96-19.25.17-10.76-8.39-19.35-19.37-19.43"/><path fill="#4ade80" d="M334.31 241.23c-10.73.14-19.03 8.38-18.9 18.77.14 11.12 9 20.05 19.67 19.84 10.81-.21 19.5-9.06 19.34-19.69-.16-10.54-9.23-19.07-20.11-18.92"/></svg>