<?xml version="1.0" standalone="no"?>
<!DOCTYPE svg PUBLIC "-//W3C//DTD SVG 20010904//EN"
 "http://www.w3.org/TR/2001/REC-SVG-20010904/DTD/svg10.dtd">
<svg version="1.0" xmlns="http://www.w3.org/2000/svg"
 width="1004.000000pt" height="1004.000000pt" viewBox="0 0 1004.000000 1004.000000"
 preserveAspectRatio="xMidYMid meet">
<metadata>
Created by potrace 1.14, written by Peter Selinger 2001-2017
</metadata>
<g transform="translate(0.000000,1004.000000) scale(0.100000,-0.100000)"
fill="#000000" stroke="none">
<path d="M1568 9385 c-2 -1 -28 -5 -58 -9 -133 -15 -244 -38 -342 -72 -40 -14
-79 -26 -85 -26 -7 -1 -13 -4 -13 -8 0 -4 -6 -7 -13 -7 -27 0 -246 -112 -302
-155 -144 -110 -240 -206 -369 -368 -20 -25 -42 -52 -49 -60 -7 -8 -24 -31
-37 -50 -13 -19 -27 -37 -30 -40 -9 -9 -104 -171 -105 -180 -1 -3 -8 -18 -17
-35 -39 -76 -93 -274 -105 -387 -8 -71 -7 -348 1 -420 41 -384 226 -711 572
-1013 80 -70 84 -75 96 -104 19 -48 16 -69 -25 -206 -20 -65 -87 -296 -92
-315 -2 -8 -17 -69 -34 -135 -16 -66 -32 -131 -35 -145 -3 -14 -9 -40 -15 -59
-6 -18 -10 -36 -9 -40 0 -3 -1 -8 -2 -11 -3 -8 -10 -43 -14 -75 -3 -16 -5 -30
-6 -30 -2 0 -18 -82 -35 -184 -3 -19 -7 -37 -9 -40 -2 -3 -7 -33 -10 -66 -4
-33 -9 -67 -11 -75 -4 -16 -14 -90 -20 -160 -3 -25 -7 -59 -10 -76 -9 -63 -17
-148 -19 -234 -2 -48 -5 -91 -8 -96 -13 -23 2 -626 17 -714 2 -14 7 -54 11
-90 8 -79 11 -106 18 -145 6 -31 11 -62 22 -130 3 -22 10 -48 15 -57 5 -10 8
-18 5 -18 -3 0 0 -15 5 -32 5 -18 12 -44 14 -58 4 -27 59 -201 74 -235 5 -11
18 -41 30 -67 12 -26 21 -52 21 -56 0 -9 84 -168 136 -259 42 -74 199 -305
228 -336 14 -15 22 -27 19 -27 -3 0 3 -8 14 -17 11 -10 24 -25 29 -34 23 -42
220 -250 320 -340 108 -95 119 -104 189 -158 39 -29 78 -59 87 -66 9 -8 29
-22 45 -32 15 -10 33 -21 38 -26 25 -19 161 -103 225 -140 158 -90 505 -263
545 -272 6 -2 39 -16 75 -32 73 -34 144 -62 362 -145 15 -5 29 -8 31 -7 2 2
10 -1 18 -7 8 -6 28 -14 44 -18 17 -4 44 -14 60 -21 26 -12 65 -23 87 -25 4 0
28 -9 53 -20 25 -11 47 -20 50 -20 3 0 10 -2 17 -4 7 -2 22 -7 33 -9 11 -3 52
-15 90 -27 88 -27 134 -40 160 -45 11 -2 39 -10 63 -19 23 -8 45 -15 47 -15 3
0 18 -2 33 -5 15 -4 36 -8 47 -10 11 -2 51 -11 89 -20 39 -9 84 -19 100 -21
17 -2 40 -6 51 -9 31 -6 177 -28 210 -31 17 -1 44 -5 60 -8 26 -5 70 -9 230
-23 22 -2 93 -5 158 -8 64 -3 121 -7 125 -9 20 -10 556 3 731 17 117 10 217
18 241 21 14 1 56 6 95 9 38 4 72 9 75 11 3 1 36 6 73 10 37 3 78 8 90 11 12
2 39 7 62 10 68 11 79 13 105 18 14 3 36 7 50 10 81 15 173 38 230 57 36 11
72 23 80 24 8 2 89 29 180 60 91 32 170 58 175 60 6 1 17 5 25 8 8 3 80 29
160 57 134 48 273 105 395 161 28 13 52 24 55 24 16 3 206 102 212 110 4 6 8
6 8 1 0 -5 6 -4 13 2 6 5 48 29 92 53 44 23 82 45 85 49 3 4 15 10 28 14 12 4
22 12 22 17 0 6 4 8 9 4 5 -3 16 2 24 10 9 8 18 15 21 15 7 0 89 51 184 115
28 19 52 32 52 28 0 -5 4 -3 8 3 4 5 48 37 97 70 50 32 92 61 95 64 17 18 80
60 89 60 6 0 11 4 11 8 0 4 12 15 28 24 49 30 237 222 370 378 84 99 215 295
292 438 14 26 32 58 40 72 8 14 15 31 16 39 2 8 8 17 14 21 7 4 11 10 10 14
-2 6 36 100 91 231 44 104 120 360 135 449 3 21 8 48 10 60 3 11 7 41 9 66 3
25 7 61 10 80 5 40 13 122 22 230 7 97 12 692 6 703 -3 5 -7 41 -9 80 -3 68
-9 133 -18 202 -3 17 -7 50 -10 75 -9 76 -29 200 -40 255 -26 123 -48 224 -51
240 -3 20 -9 45 -65 265 -17 69 -33 132 -35 140 -2 8 -15 58 -30 110 -14 52
-28 106 -31 120 -3 14 -8 34 -11 45 -4 11 -8 25 -9 30 -9 43 -16 70 -34 139
-13 46 -19 93 -16 110 4 22 36 61 104 129 97 95 182 185 212 223 55 69 110
143 110 149 0 5 39 64 50 75 3 3 26 48 51 100 46 94 94 220 103 272 2 15 7 31
9 36 3 4 8 26 11 48 4 22 8 51 11 64 3 14 7 63 10 109 3 46 8 88 11 93 3 4 2
8 -3 8 -4 0 -8 28 -9 63 0 34 -4 87 -8 117 -4 30 -9 87 -12 125 -3 39 -6 77
-8 85 -1 8 -6 31 -10 50 -4 19 -8 42 -10 50 -2 8 -6 22 -9 30 -3 8 -15 41 -26
73 -25 70 -80 181 -92 185 -5 2 -9 8 -9 13 0 11 -66 110 -96 146 -11 12 -28
34 -39 49 -11 15 -45 53 -76 86 -30 32 -53 60 -51 63 3 3 1 5 -4 5 -5 0 -34
23 -64 51 -30 29 -71 63 -90 78 -19 14 -37 29 -40 32 -13 16 -183 121 -255
157 -119 60 -314 126 -425 146 -14 2 -41 7 -60 10 -19 3 -48 9 -65 12 -49 11
-425 12 -425 2 0 -5 -4 -7 -9 -4 -4 3 -35 1 -67 -5 -32 -5 -71 -12 -86 -14
-15 -2 -46 -9 -70 -15 -24 -7 -52 -14 -62 -16 -20 -4 -109 -31 -136 -41 -8 -4
-17 -7 -20 -8 -84 -21 -348 -159 -358 -186 -2 -5 -8 -9 -14 -9 -5 0 -15 -6
-23 -12 -7 -7 -28 -24 -47 -38 -52 -40 -116 -98 -213 -196 -49 -50 -105 -98
-122 -108 -45 -23 -109 -29 -168 -16 -27 6 -59 12 -70 14 -11 2 -44 11 -72 19
-29 9 -53 14 -53 12 0 -3 -10 -1 -23 4 -13 5 -41 12 -61 15 -21 4 -68 13 -104
21 -37 8 -78 16 -92 19 -75 12 -98 16 -130 21 -19 2 -46 7 -60 9 -14 2 -65 9
-115 16 -49 6 -103 13 -120 15 -48 6 -196 18 -245 19 -25 1 -48 6 -52 11 -5 6
-8 6 -8 -2 0 -7 -9 -10 -22 -7 -58 14 -762 6 -978 -11 -161 -13 -321 -29 -415
-41 -22 -3 -55 -7 -74 -9 -68 -8 -398 -63 -423 -71 -10 -3 -30 -7 -45 -10 -16
-3 -53 -11 -83 -19 -30 -8 -68 -16 -85 -19 -16 -3 -51 -12 -76 -19 -94 -29
-125 -15 -259 109 -30 28 -68 63 -85 78 -16 15 -41 37 -55 49 -14 13 -43 36
-65 52 -22 17 -48 37 -57 45 -46 41 -322 193 -332 183 -3 -4 -6 -1 -6 5 0 7
-5 12 -10 12 -6 0 -30 9 -52 20 -23 11 -50 20 -60 20 -10 0 -18 4 -18 8 0 4
-12 9 -26 10 -15 1 -32 6 -38 11 -7 6 -23 12 -36 15 -14 3 -54 12 -90 21 -36
9 -78 18 -94 20 -15 3 -35 7 -45 9 -38 12 -125 18 -268 21 -84 1 -154 1 -155
0z"/>
</g>
</svg>
